<svg width="33" height="23" viewBox="0 0 33 23" fill="none" xmlns="http://www.w3.org/2000/svg">
<path d="M5.335 12.7595C3.36334 12.7595 1.40993 14.4025 0.679688 15.224V22.6178H32.7192V0.710449C29.7069 3.99655 27.79 4.54424 26.147 4.54424C24.5039 4.54424 23.6824 5.09192 21.4917 7.83034C19.3009 10.5688 17.384 10.021 14.3718 8.65184C11.3595 7.28263 10.538 8.378 9.16879 10.2949C7.79958 12.2118 7.79958 12.7595 5.335 12.7595Z" fill="url(#paint0_linear_171_352)"/>
<path d="M0.679688 15.224C1.40993 14.4025 3.36334 12.7595 5.335 12.7595C7.79958 12.7595 7.79958 12.2118 9.16879 10.2949C10.538 8.378 11.3595 7.28263 14.3718 8.65184C17.384 10.021 19.3009 10.5688 21.4917 7.83034C23.6824 5.09192 24.5039 4.54424 26.147 4.54424C27.79 4.54424 29.7069 3.99655 32.7192 0.710449" stroke="#064A4A" stroke-width="0.547684" stroke-linecap="round" stroke-linejoin="round"/>
<defs>
<linearGradient id="paint0_linear_171_352" x1="16.6994" y1="0.162766" x2="16.6994" y2="22.6178" gradientUnits="userSpaceOnUse">
<stop stop-color="#064A4A"/>
<stop offset="1" stop-color="#064A4A" stop-opacity="0"/>
</linearGradient>
</defs>
</svg>
