<svg width="28" height="11" viewBox="0 0 28 11" fill="none" xmlns="http://www.w3.org/2000/svg">
<rect x="0.355469" y="0.440918" width="27.1511" height="10.1771" rx="2.72136" fill="#35B2AA" fill-opacity="0.25"/>
<g clip-path="url(#clip0_180_415)">
<path fill-rule="evenodd" clip-rule="evenodd" d="M8.13655 4.06003C8.15622 3.96431 8.07158 3.87967 7.97586 3.89935L5.58782 4.39029C5.4817 4.4121 5.4424 4.54317 5.51901 4.61978L6.25205 5.35283L5.13289 6.47199L4.25017 5.58926C4.14389 5.48298 3.97158 5.48298 3.86531 5.58926L2.61096 6.84361C2.50468 6.94989 2.50468 7.12219 2.61096 7.22847C2.71723 7.33474 2.88954 7.33474 2.99582 7.22847L4.05774 6.16655L4.94046 7.04928C5.04674 7.15555 5.21905 7.15555 5.32532 7.04928L6.63691 5.73769L7.41612 6.51689C7.49273 6.5935 7.62379 6.5542 7.64561 6.44807L8.13655 4.06003Z" fill="#35B2AA"/>
</g>
<path d="M13.8078 7.5293V3.74116L13.0697 3.91097V3.40153L14.0821 2.9574H14.5262V7.5293H13.8078ZM17.3099 7.60767C16.9877 7.60767 16.7091 7.55107 16.4739 7.43786C16.2388 7.3203 16.0516 7.16137 15.9123 6.96108C15.7773 6.75643 15.6945 6.52566 15.6641 6.26876H16.3433C16.3869 6.48647 16.4957 6.66717 16.6699 6.81086C16.844 6.95019 17.0596 7.01986 17.3165 7.01986C17.5081 7.01986 17.6735 6.97414 17.8129 6.8827C17.9522 6.78691 18.061 6.66064 18.1394 6.50389C18.2178 6.34714 18.257 6.17079 18.257 5.97485C18.257 5.66571 18.1699 5.41969 17.9957 5.23682C17.8216 5.04959 17.6017 4.95597 17.3361 4.95597C17.1097 4.95597 16.9159 5.0104 16.7548 5.11926C16.5937 5.22376 16.4761 5.35656 16.4021 5.51766H15.7424L16.1343 2.9574H18.6031V3.56481H16.6568L16.4217 4.78616C16.5218 4.67295 16.659 4.57934 16.8332 4.50532C17.0117 4.42694 17.212 4.38775 17.434 4.38775C17.7432 4.38775 18.0088 4.4596 18.2309 4.60329C18.4529 4.74262 18.6227 4.93203 18.7403 5.17151C18.8622 5.41099 18.9232 5.67659 18.9232 5.96832C18.9232 6.27311 18.8579 6.54961 18.7272 6.79779C18.5966 7.04598 18.4094 7.2441 18.1655 7.39214C17.9261 7.53583 17.6409 7.60767 17.3099 7.60767ZM20.8839 5.13885C20.6793 5.13885 20.4942 5.09313 20.3288 5.00169C20.1677 4.91026 20.0392 4.78181 19.9434 4.61635C19.8476 4.44653 19.7997 4.24407 19.7997 4.00894C19.7997 3.77817 19.8476 3.58005 19.9434 3.41459C20.0392 3.24478 20.1698 3.11415 20.3353 3.02272C20.5008 2.93128 20.6858 2.88556 20.8905 2.88556C21.0908 2.88556 21.2715 2.93128 21.4326 3.02272C21.598 3.11415 21.7286 3.24478 21.8244 3.41459C21.9202 3.58005 21.9681 3.77817 21.9681 4.00894C21.9681 4.24407 21.9202 4.44653 21.8244 4.61635C21.7286 4.78181 21.598 4.91026 21.4326 5.00169C21.2715 5.09313 21.0886 5.13885 20.8839 5.13885ZM20.5574 7.5293L23.1764 2.9574H23.8557L21.2431 7.5293H20.5574ZM20.8839 4.64247C21.0233 4.64247 21.143 4.59022 21.2431 4.48572C21.3477 4.37687 21.3999 4.21794 21.3999 4.00894C21.3999 3.79994 21.3498 3.64319 21.2497 3.53869C21.1495 3.42983 21.0276 3.37541 20.8839 3.37541C20.7446 3.37541 20.6227 3.42983 20.5182 3.53869C20.4137 3.64319 20.3614 3.79994 20.3614 4.00894C20.3614 4.21794 20.4115 4.37687 20.5116 4.48572C20.6161 4.59022 20.7402 4.64247 20.8839 4.64247ZM23.5683 7.60767C23.3636 7.60767 23.1786 7.56195 23.0131 7.47052C22.852 7.37908 22.7236 7.25063 22.6278 7.08517C22.532 6.91536 22.4841 6.71289 22.4841 6.47776C22.4841 6.24699 22.532 6.0467 22.6278 5.87688C22.7236 5.70707 22.8542 5.57645 23.0197 5.48501C23.1851 5.39357 23.3702 5.34785 23.5748 5.34785C23.7751 5.34785 23.9558 5.39357 24.1169 5.48501C24.2824 5.57645 24.413 5.70707 24.5088 5.87688C24.6046 6.0467 24.6525 6.24699 24.6525 6.47776C24.6525 6.71289 24.6046 6.91536 24.5088 7.08517C24.413 7.25063 24.2824 7.37908 24.1169 7.47052C23.9558 7.56195 23.7729 7.60767 23.5683 7.60767ZM23.5683 7.10476C23.7076 7.10476 23.8274 7.05251 23.9275 6.94801C24.032 6.84351 24.0843 6.68676 24.0843 6.47776C24.0843 6.26876 24.0342 6.11201 23.934 6.00751C23.8339 5.89865 23.712 5.84423 23.5683 5.84423C23.429 5.84423 23.307 5.89865 23.2025 6.00751C23.098 6.11201 23.0458 6.26876 23.0458 6.47776C23.0458 6.68676 23.0959 6.84351 23.196 6.94801C23.3005 7.05251 23.4246 7.10476 23.5683 7.10476Z" fill="#35B2AA"/>
<defs>
<clipPath id="clip0_180_415">
<rect width="6.53128" height="6.53128" fill="white" transform="translate(1.98828 2.26367)"/>
</clipPath>
</defs>
</svg>
