<svg width="14" height="14" viewBox="0 0 14 14" fill="none" xmlns="http://www.w3.org/2000/svg">
<path d="M12.1288 1.28236C12.0417 1.19527 11.9274 1.16262 11.8186 1.16806H9.6034C9.38025 1.16806 9.1952 1.35311 9.1952 1.57626C9.1952 1.79941 9.38025 1.98447 9.6034 1.98447H10.8498L9.31494 3.52476C9.1571 3.6826 9.1571 3.94385 9.31494 4.10169C9.39658 4.18333 9.49999 4.22143 9.6034 4.22143C9.70682 4.22143 9.81023 4.18333 9.89187 4.10169L11.4267 2.5614V3.81322C11.4267 4.03638 11.6118 4.22143 11.8349 4.22143C12.0581 4.22143 12.2431 4.03638 12.2431 3.81322V1.59803C12.254 1.48374 12.2159 1.36944 12.1288 1.28236ZM5.38529 6.85562V7.36723C5.1948 7.30736 5.08594 7.19851 5.08594 7.11143C5.08594 7.02434 5.1948 6.91549 5.38529 6.85562ZM6.29422 8.32515C6.29422 8.4068 6.17993 8.51565 5.98943 8.58096V8.0639C6.17993 8.12922 6.29422 8.23807 6.29422 8.32515Z" fill="#FFA882"/>
<path d="M5.69026 3.38869C3.30634 3.38869 1.36328 5.33175 1.36328 7.71568C1.36328 10.105 3.30634 12.0481 5.69026 12.0481C8.07415 12.0481 10.0118 10.105 10.0118 7.71568C10.0118 5.33175 8.07415 3.38869 5.69026 3.38869ZM5.98958 9.20154V9.22876C5.98958 9.39748 5.85352 9.53355 5.69026 9.53355C5.52153 9.53355 5.38546 9.39748 5.38546 9.22876V9.20154C5.097 9.14712 4.84118 9.01649 4.67245 8.82599C4.58537 8.71714 4.57449 8.56474 4.65613 8.45045C4.73232 8.33615 4.87929 8.29261 5.00991 8.34159L5.38546 8.48855V7.98781C4.85752 7.88985 4.47652 7.54151 4.47652 7.11154C4.47652 6.68156 4.85752 6.33322 5.38546 6.23526V6.2026C5.38546 6.03387 5.52153 5.89781 5.69026 5.89781C5.85352 5.89781 5.98958 6.03387 5.98958 6.2026V6.22981C6.28349 6.28424 6.5393 6.42031 6.70258 6.6108C6.79511 6.71422 6.80055 6.86661 6.72435 6.98091C6.66448 7.06255 6.57196 7.11154 6.47399 7.11154C6.43589 7.11154 6.40323 7.10609 6.36513 7.08976L5.98958 6.94825V7.44354C6.51753 7.54151 6.89852 7.88984 6.89852 8.32526C6.89852 8.75524 6.51753 9.10357 5.98958 9.20154ZM12.1181 1.28236C12.031 1.19527 11.9167 1.16262 11.8079 1.16806H9.59267C9.36952 1.16806 9.18447 1.35311 9.18447 1.57626C9.18447 1.79941 9.36952 1.98447 9.59267 1.98447H10.8391L9.30421 3.52476C9.14637 3.6826 9.14637 3.94385 9.30421 4.10169C9.38585 4.18333 9.48926 4.22143 9.59267 4.22143C9.69608 4.22143 9.79949 4.18333 9.88114 4.10169L11.416 2.5614V3.81322C11.416 4.03638 11.601 4.22143 11.8242 4.22143C12.0473 4.22143 12.2324 4.03638 12.2324 3.81322V1.59803C12.2378 1.48374 12.1997 1.36944 12.1181 1.28236Z" fill="#FFA882"/>
<path d="M6.27745 8.32473C6.27745 8.40637 6.16315 8.51522 5.97266 8.58054V8.06348C6.16315 8.12879 6.27745 8.23764 6.27745 8.32473Z" fill="#FFA882"/>
<path d="M5.67073 3.38867C3.28681 3.38867 1.34375 5.33173 1.34375 7.71566C1.34375 10.105 3.28681 12.0481 5.67073 12.0481C8.05464 12.0481 9.99225 10.105 9.99225 7.71566C9.99225 5.33173 8.05464 3.38867 5.67073 3.38867ZM5.97007 9.20152V9.22874C5.97007 9.39746 5.834 9.53353 5.67073 9.53353C5.502 9.53353 5.36593 9.39746 5.36593 9.22874V9.20152C5.07747 9.1471 4.82165 9.01647 4.65292 8.82598C4.56584 8.71712 4.55495 8.56472 4.6366 8.45043C4.71279 8.33613 4.85976 8.29259 4.99038 8.34157L5.36593 8.48853V7.98779C4.83799 7.88983 4.45699 7.54149 4.45699 7.11152C4.45699 6.68154 4.83799 6.33321 5.36593 6.23524V6.20258C5.36593 6.03385 5.502 5.89779 5.67073 5.89779C5.834 5.89779 5.97007 6.03385 5.97007 6.20258V6.22979C6.26398 6.28422 6.51979 6.42029 6.68307 6.61078C6.77559 6.7142 6.78104 6.86659 6.70484 6.98089C6.64497 7.06253 6.55244 7.11152 6.45447 7.11152C6.41637 7.11152 6.38372 7.10607 6.34562 7.08974L5.97007 6.94823V7.44352C6.49801 7.54149 6.87901 7.88983 6.87901 8.32524C6.87901 8.75522 6.49801 9.10355 5.97007 9.20152Z" fill="#FFA882"/>
</svg>
