<svg width="14" height="14" viewBox="0 0 14 14" fill="none" xmlns="http://www.w3.org/2000/svg">
<path d="M12.1288 2.0055C12.0417 1.91842 11.9274 1.88576 11.8186 1.8912H9.6034C9.38025 1.8912 9.1952 2.07626 9.1952 2.29941C9.1952 2.52256 9.38025 2.70761 9.6034 2.70761H10.8498L9.31494 4.2479C9.1571 4.40574 9.1571 4.66699 9.31494 4.82483C9.39658 4.90647 9.49999 4.94457 9.6034 4.94457C9.70682 4.94457 9.81023 4.90647 9.89187 4.82483L11.4267 3.28454V4.53637C11.4267 4.75952 11.6118 4.94457 11.8349 4.94457C12.0581 4.94457 12.2431 4.75952 12.2431 4.53637V2.32118C12.254 2.20688 12.2159 2.09258 12.1288 2.0055ZM5.38529 7.57876V8.09038C5.1948 8.03051 5.08594 7.92165 5.08594 7.83457C5.08594 7.74749 5.1948 7.63863 5.38529 7.57876ZM6.29422 9.0483C6.29422 9.12994 6.17993 9.2388 5.98943 9.30411V8.78705C6.17993 8.85236 6.29422 8.96122 6.29422 9.0483Z" fill="#FECB63"/>
<path d="M5.69026 4.11184C3.30634 4.11184 1.36328 6.05489 1.36328 8.43882C1.36328 10.8282 3.30634 12.7712 5.69026 12.7712C8.07415 12.7712 10.0118 10.8282 10.0118 8.43882C10.0118 6.05489 8.07415 4.11184 5.69026 4.11184ZM5.98958 9.92469V9.9519C5.98958 10.1206 5.85352 10.2567 5.69026 10.2567C5.52153 10.2567 5.38546 10.1206 5.38546 9.9519V9.92469C5.097 9.87026 4.84118 9.73963 4.67245 9.54914C4.58537 9.44029 4.57449 9.28789 4.65613 9.17359C4.73232 9.05929 4.87929 9.01575 5.00991 9.06474L5.38546 9.21169V8.71096C4.85752 8.61299 4.47652 8.26466 4.47652 7.83468C4.47652 7.4047 4.85752 7.05637 5.38546 6.9584V6.92574C5.38546 6.75702 5.52153 6.62095 5.69026 6.62095C5.85352 6.62095 5.98958 6.75702 5.98958 6.92574V6.95296C6.28349 7.00738 6.5393 7.14345 6.70258 7.33395C6.79511 7.43736 6.80055 7.58976 6.72435 7.70405C6.66448 7.7857 6.57196 7.83468 6.47399 7.83468C6.43589 7.83468 6.40323 7.82924 6.36513 7.81291L5.98958 7.6714V8.16669C6.51753 8.26466 6.89852 8.61299 6.89852 9.04841C6.89852 9.47838 6.51753 9.82672 5.98958 9.92469ZM12.1181 2.0055C12.031 1.91842 11.9167 1.88576 11.8079 1.8912H9.59267C9.36952 1.8912 9.18447 2.07626 9.18447 2.29941C9.18447 2.52256 9.36952 2.70761 9.59267 2.70761H10.8391L9.30421 4.2479C9.14637 4.40574 9.14637 4.66699 9.30421 4.82483C9.38585 4.90647 9.48926 4.94457 9.59267 4.94457C9.69608 4.94457 9.79949 4.90647 9.88114 4.82483L11.416 3.28454V4.53637C11.416 4.75952 11.601 4.94457 11.8242 4.94457C12.0473 4.94457 12.2324 4.75952 12.2324 4.53637V2.32118C12.2378 2.20688 12.1997 2.09258 12.1181 2.0055Z" fill="#FECB63"/>
<path d="M6.27745 9.04836C6.27745 9.13 6.16315 9.23886 5.97266 9.30417V8.78711C6.16315 8.85242 6.27745 8.96128 6.27745 9.04836Z" fill="#FECB63"/>
<path d="M5.67073 4.11182C3.28681 4.11182 1.34375 6.05487 1.34375 8.4388C1.34375 10.8282 3.28681 12.7712 5.67073 12.7712C8.05464 12.7712 9.99225 10.8282 9.99225 8.4388C9.99225 6.05487 8.05464 4.11182 5.67073 4.11182ZM5.97007 9.92467V9.95188C5.97007 10.1206 5.834 10.2567 5.67073 10.2567C5.502 10.2567 5.36593 10.1206 5.36593 9.95188V9.92467C5.07747 9.87024 4.82165 9.73962 4.65292 9.54912C4.56584 9.44027 4.55495 9.28787 4.6366 9.17357C4.71279 9.05927 4.85976 9.01573 4.99038 9.06472L5.36593 9.21167V8.71094C4.83799 8.61297 4.45699 8.26464 4.45699 7.83466C4.45699 7.40468 4.83799 7.05635 5.36593 6.95838V6.92572C5.36593 6.757 5.502 6.62093 5.67073 6.62093C5.834 6.62093 5.97007 6.757 5.97007 6.92572V6.95294C6.26398 7.00736 6.51979 7.14343 6.68307 7.33393C6.77559 7.43734 6.78104 7.58974 6.70484 7.70403C6.64497 7.78568 6.55244 7.83466 6.45447 7.83466C6.41637 7.83466 6.38372 7.82922 6.34562 7.81289L5.97007 7.67138V8.16667C6.49801 8.26464 6.87901 8.61297 6.87901 9.04839C6.87901 9.47836 6.49801 9.8267 5.97007 9.92467Z" fill="#FECB63"/>
</svg>
