<svg width="28" height="11" viewBox="0 0 28 11" fill="none" xmlns="http://www.w3.org/2000/svg">
<rect x="0.355469" y="0.717285" width="27.1511" height="10.1771" rx="2.72136" fill="#FFA882" fill-opacity="0.25"/>
<g clip-path="url(#clip0_180_429)">
<path fill-rule="evenodd" clip-rule="evenodd" d="M8.13655 7.27493C8.15622 7.37065 8.07158 7.45529 7.97586 7.43561L5.58782 6.94468C5.4817 6.92286 5.4424 6.79179 5.51901 6.71518L6.25205 5.98213L5.13289 4.86297L4.25017 5.7457C4.14389 5.85198 3.97158 5.85198 3.86531 5.7457L2.61096 4.49135C2.50468 4.38508 2.50468 4.21277 2.61096 4.10649C2.71723 4.00022 2.88954 4.00022 2.99582 4.10649L4.05774 5.16841L4.94046 4.28569C5.04674 4.17941 5.21905 4.17941 5.32532 4.28569L6.63691 5.59728L7.41612 4.81807C7.49273 4.74146 7.62379 4.78076 7.64561 4.88689L8.13655 7.27493Z" fill="#FFA882"/>
</g>
<path d="M13.8078 7.80566V4.01752L13.0697 4.18734V3.6779L14.0821 3.23377H14.5262V7.80566H13.8078ZM17.5451 7.88404C17.1314 7.88404 16.7744 7.78607 16.4739 7.59013C16.1779 7.38984 15.9493 7.11335 15.7882 6.76066C15.6314 6.40362 15.553 5.98997 15.553 5.51972C15.553 5.04947 15.6314 4.638 15.7882 4.28531C15.9493 3.92826 16.1779 3.65177 16.4739 3.45583C16.7744 3.25554 17.1314 3.1554 17.5451 3.1554C17.9587 3.1554 18.3136 3.25554 18.6097 3.45583C18.9058 3.65177 19.1322 3.92826 19.2889 4.28531C19.45 4.638 19.5306 5.04947 19.5306 5.51972C19.5306 5.98997 19.45 6.40362 19.2889 6.76066C19.1322 7.11335 18.9058 7.38984 18.6097 7.59013C18.3136 7.78607 17.9587 7.88404 17.5451 7.88404ZM17.5451 7.26357C17.7933 7.26357 18.0131 7.1939 18.2047 7.05457C18.4007 6.91523 18.5531 6.71494 18.6619 6.45369C18.7708 6.19244 18.8252 5.88111 18.8252 5.51972C18.8252 5.15832 18.7708 4.847 18.6619 4.58574C18.5531 4.32449 18.4007 4.1242 18.2047 3.98487C18.0131 3.84553 17.7933 3.77587 17.5451 3.77587C17.2925 3.77587 17.0705 3.84553 16.8789 3.98487C16.6873 4.1242 16.5371 4.32449 16.4282 4.58574C16.3194 4.847 16.2649 5.15832 16.2649 5.51972C16.2649 5.88111 16.3194 6.19244 16.4282 6.45369C16.5371 6.71494 16.6873 6.91523 16.8789 7.05457C17.0705 7.1939 17.2925 7.26357 17.5451 7.26357ZM21.4452 5.41522C21.2406 5.41522 21.0555 5.3695 20.8901 5.27806C20.7289 5.18662 20.6005 5.05817 20.5047 4.89272C20.4089 4.7229 20.361 4.52043 20.361 4.28531C20.361 4.05453 20.4089 3.85642 20.5047 3.69096C20.6005 3.52115 20.7311 3.39052 20.8966 3.29908C21.062 3.20765 21.2471 3.16193 21.4517 3.16193C21.652 3.16193 21.8327 3.20765 21.9938 3.29908C22.1593 3.39052 22.2899 3.52115 22.3857 3.69096C22.4815 3.85642 22.5294 4.05453 22.5294 4.28531C22.5294 4.52043 22.4815 4.7229 22.3857 4.89272C22.2899 5.05817 22.1593 5.18662 21.9938 5.27806C21.8327 5.3695 21.6499 5.41522 21.4452 5.41522ZM21.1186 7.80566L23.7377 3.23377H24.4169L21.8044 7.80566H21.1186ZM21.4452 4.91884C21.5845 4.91884 21.7043 4.86659 21.8044 4.76209C21.9089 4.65323 21.9612 4.49431 21.9612 4.28531C21.9612 4.07631 21.9111 3.91955 21.811 3.81505C21.7108 3.7062 21.5889 3.65177 21.4452 3.65177C21.3059 3.65177 21.184 3.7062 21.0795 3.81505C20.975 3.91955 20.9227 4.07631 20.9227 4.28531C20.9227 4.49431 20.9728 4.65323 21.0729 4.76209C21.1774 4.86659 21.3015 4.91884 21.4452 4.91884ZM24.1296 7.88404C23.9249 7.88404 23.7399 7.83832 23.5744 7.74688C23.4133 7.65544 23.2849 7.527 23.1891 7.36154C23.0933 7.19172 23.0454 6.98925 23.0454 6.75413C23.0454 6.52336 23.0933 6.32306 23.1891 6.15325C23.2849 5.98344 23.4155 5.85281 23.5809 5.76137C23.7464 5.66994 23.9315 5.62422 24.1361 5.62422C24.3364 5.62422 24.5171 5.66994 24.6782 5.76137C24.8437 5.85281 24.9743 5.98344 25.0701 6.15325C25.1659 6.32306 25.2138 6.52336 25.2138 6.75413C25.2138 6.98925 25.1659 7.19172 25.0701 7.36154C24.9743 7.527 24.8437 7.65544 24.6782 7.74688C24.5171 7.83832 24.3342 7.88404 24.1296 7.88404ZM24.1296 7.38113C24.2689 7.38113 24.3886 7.32888 24.4888 7.22438C24.5933 7.11988 24.6455 6.96313 24.6455 6.75413C24.6455 6.54513 24.5955 6.38838 24.4953 6.28388C24.3952 6.17502 24.2733 6.12059 24.1296 6.12059C23.9902 6.12059 23.8683 6.17502 23.7638 6.28388C23.6593 6.38838 23.6071 6.54513 23.6071 6.75413C23.6071 6.96313 23.6571 7.11988 23.7573 7.22438C23.8618 7.32888 23.9859 7.38113 24.1296 7.38113Z" fill="#FFA882"/>
<defs>
<clipPath id="clip0_180_429">
<rect width="6.53128" height="6.53128" fill="white" transform="matrix(1 0 0 -1 1.98828 9.07129)"/>
</clipPath>
</defs>
</svg>
