<svg width="249" height="246" viewBox="0 0 249 246" fill="none" xmlns="http://www.w3.org/2000/svg">
<path d="M128.502 33.0002C155.702 27.0002 173.5 32.9999 173.5 32.9999C201.5 40.4999 228.8 122.9 244 158.5C259.2 194.1 218.335 203.333 196.002 203.5C191.502 204.5 170.002 232.5 150.002 236.5C130.002 240.5 104.502 236.5 80.5017 213.5C56.5017 190.5 52.0017 133 64.0017 92.5002C76.0017 52.0002 94.5017 40.5002 128.502 33.0002Z" stroke="white" stroke-width="3"/>
<circle cx="57" cy="150" r="17.5" fill="#32C3A5"/>
<circle cx="103" cy="57" r="10" fill="#32C3A5"/>
<path d="M182 30C182 46.5685 168.569 60 152 60C135.431 60 122 46.5685 122 30C122 13.4315 135.431 0 152 0C168.569 0 182 13.4315 182 30Z" fill="#32C3A5"/>
<path d="M182 30C182 46.5685 168.569 60 152 60C135.431 60 122 46.5685 122 30C122 13.4315 135.431 0 152 0C168.569 0 182 13.4315 182 30Z" fill="#32C3A5"/>
<path d="M192 231C192 239.284 185.284 246 177 246C168.716 246 162 239.284 162 231C162 222.716 168.716 216 177 216C185.284 216 192 222.716 192 231Z" fill="#32C3A5"/>
<path d="M192 231C192 239.284 185.284 246 177 246C168.716 246 162 239.284 162 231C162 222.716 168.716 216 177 216C185.284 216 192 222.716 192 231Z" fill="#32C3A5"/>
<circle cx="9.5" cy="206" r="9.5" fill="#32C3A5"/>
<circle cx="53.5" cy="204" r="4.5" fill="#32C3A5"/>
</svg>
