<svg width="224" height="186" viewBox="0 0 224 186" fill="none" xmlns="http://www.w3.org/2000/svg">
<path d="M141.5 22.5002C117.9 12.9002 102.667 18.1668 98 22.0002C57.8333 39.0001 -24.5 101 28 142.5C72 177.281 75 154 98 158.5C114.5 151 132.5 177 168 170C200.907 163.511 228 136.5 220.5 101C213 65.5 171 34.5002 141.5 22.5002Z" stroke="white" stroke-width="3"/>
<path d="M141.5 22.5002C117.9 12.9002 102.667 18.1668 98 22.0002C57.8333 39.0001 -24.5 101 28 142.5C72 177.281 73 155 98 158.5C114.5 151 132.5 177 168 170C200.907 163.511 228 136.5 220.5 101C213 65.5 171 34.5002 141.5 22.5002Z" stroke="white" stroke-width="3"/>
<circle cx="168.5" cy="38.5" r="13.5" fill="#32C3A5"/>
<circle cx="174.5" cy="163.5" r="22.5" fill="#32C3A5"/>
<circle cx="10.5" cy="98.5" r="10.5" fill="#32C3A5"/>
<circle cx="206.5" cy="6" r="6" fill="#32C3A5"/>
<circle cx="32" cy="89" r="6" fill="#32C3A5"/>
<circle cx="18" cy="117" r="3" fill="#32C3A5"/>
<circle cx="186.5" cy="88.5" r="10.5" fill="#32C3A5"/>
<circle r="6.5" transform="matrix(-1 0 0 1 127.5 31.5)" fill="#32C3A5"/>
<circle cx="136" cy="171.5" r="7.5" fill="#32C3A5"/>
<circle cx="98.5" cy="160.5" r="3.5" fill="#32C3A5"/>
</svg>
