<svg width="38" height="38" viewBox="0 0 38 38" fill="none" xmlns="http://www.w3.org/2000/svg">
<path d="M1.1875 10.6875H36.8125V34.4375H1.1875V10.6875Z" fill="#FFCB66"/>
<path d="M1.1875 3.5625H36.8125V10.6875H1.1875V3.5625Z" fill="#68CE9C"/>
<path d="M4.79297 7.71875C5.12089 7.71875 5.38672 7.45292 5.38672 7.125C5.38672 6.79708 5.12089 6.53125 4.79297 6.53125C4.46505 6.53125 4.19922 6.79708 4.19922 7.125C4.19922 7.45292 4.46505 7.71875 4.79297 7.71875Z" fill="white"/>
<path d="M8.94922 7.71875C9.27714 7.71875 9.54297 7.45292 9.54297 7.125C9.54297 6.79708 9.27714 6.53125 8.94922 6.53125C8.6213 6.53125 8.35547 6.79708 8.35547 7.125C8.35547 7.45292 8.6213 7.71875 8.94922 7.71875Z" fill="white"/>
<path d="M13.1055 7.71875C13.4334 7.71875 13.6992 7.45292 13.6992 7.125C13.6992 6.79708 13.4334 6.53125 13.1055 6.53125C12.7775 6.53125 12.5117 6.79708 12.5117 7.125C12.5117 7.45292 12.7775 7.71875 13.1055 7.71875Z" fill="white"/>
<path opacity="0.15" d="M1.1875 10.6875H3.5625V34.4375H1.1875V10.6875ZM1.1875 3.5625H3.5625V10.6875H1.1875V3.5625Z" fill="black" fill-opacity="0.83"/>
<path d="M1.1875 10.6875V34.4375H36.8125V10.6875M1.1875 3.5625H36.8125V10.6875H1.1875V3.5625Z" stroke="#363636" stroke-width="2" stroke-linecap="round" stroke-linejoin="round"/>
<path d="M23.2734 22.5625L26.1234 25.4125L28.9734 22.5625M14.7234 22.5625L11.8734 19.7125L9.02344 22.5625" stroke="#363636" stroke-width="2" stroke-linecap="round" stroke-linejoin="round"/>
<path d="M22.3849 28.8563C21.0444 29.5899 19.5008 29.8651 17.9894 29.64C16.4779 29.4149 15.0815 28.7018 14.013 27.6094C13.0691 26.6518 12.4129 25.4486 12.119 24.1365C11.8251 22.8245 11.9053 21.4563 12.3505 20.1876M15.6161 16.2688C16.9566 15.5352 18.5002 15.26 20.0116 15.4851C21.523 15.7102 22.9194 16.4233 23.988 17.5157C24.9318 18.4733 25.588 19.6765 25.8819 20.9886C26.1758 22.3006 26.0956 23.6688 25.6505 24.9376" stroke="#363636" stroke-width="2" stroke-linecap="round" stroke-linejoin="round"/>
<path d="M4.79062 8.3C5.42575 8.3 5.94062 7.78513 5.94062 7.15C5.94062 6.51487 5.42575 6 4.79062 6C4.1555 6 3.64062 6.51487 3.64062 7.15C3.64062 7.78513 4.1555 8.3 4.79062 8.3Z" stroke="#363636" stroke-width="0.8" stroke-linecap="round" stroke-linejoin="round"/>
<path d="M8.94687 8.3C9.582 8.3 10.0969 7.78513 10.0969 7.15C10.0969 6.51487 9.582 6 8.94687 6C8.31175 6 7.79688 6.51487 7.79688 7.15C7.79688 7.78513 8.31175 8.3 8.94687 8.3Z" stroke="#363636" stroke-width="0.8" stroke-linecap="round" stroke-linejoin="round"/>
<path d="M13.1031 8.3C13.7383 8.3 14.2531 7.78513 14.2531 7.15C14.2531 6.51487 13.7383 6 13.1031 6C12.468 6 11.9531 6.51487 11.9531 7.15C11.9531 7.78513 12.468 8.3 13.1031 8.3Z" stroke="#363636" stroke-width="0.8" stroke-linecap="round" stroke-linejoin="round"/>
</svg>
