<svg width="38" height="38" viewBox="0 0 38 38" fill="none" xmlns="http://www.w3.org/2000/svg">
<path d="M30.6969 8.90625L28.5 2.96875L12.1719 8.90625" fill="#68CE9C"/>
<path d="M35.625 18.4062H26.125C25.4692 18.4062 24.9375 18.9379 24.9375 19.5938V24.3438C24.9375 24.9996 25.4692 25.5312 26.125 25.5312H35.625C36.2808 25.5312 36.8125 24.9996 36.8125 24.3438V19.5938C36.8125 18.9379 36.2808 18.4062 35.625 18.4062Z" fill="#D6958A"/>
<path opacity="0.4" d="M35.625 18.4062H26.125C25.4692 18.4062 24.9375 18.9379 24.9375 19.5938V24.3438C24.9375 24.9996 25.4692 25.5312 26.125 25.5312H35.625C36.2808 25.5312 36.8125 24.9996 36.8125 24.3438V19.5938C36.8125 18.9379 36.2808 18.4062 35.625 18.4062Z" fill="white"/>
<path d="M24.9375 24.3438V19.5938C24.9375 19.2788 25.0626 18.9768 25.2853 18.7541C25.508 18.5314 25.8101 18.4062 26.125 18.4062H34.4375V10.6875C34.4375 10.2151 34.2498 9.76201 33.9158 9.42797C33.5817 9.09392 33.1287 8.90625 32.6562 8.90625H2.96875C2.49633 8.90625 2.04327 9.09392 1.70922 9.42797C1.37517 9.76201 1.1875 10.2151 1.1875 10.6875V33.25C1.1875 33.7224 1.37517 34.1755 1.70922 34.5095C2.04327 34.8436 2.49633 35.0312 2.96875 35.0312H32.6562C33.1287 35.0312 33.5817 34.8436 33.9158 34.5095C34.2498 34.1755 34.4375 33.7224 34.4375 33.25V25.5312H26.125C25.8101 25.5312 25.508 25.4061 25.2853 25.1834C25.0626 24.9607 24.9375 24.6587 24.9375 24.3438Z" fill="#FFA881"/>
<g opacity="0.15">
<path opacity="0.15" d="M26.125 25.5312C25.8101 25.5312 25.508 25.4061 25.2853 25.1834C25.0626 24.9607 24.9375 24.6587 24.9375 24.3438V20.7812C24.6226 20.7812 24.3205 20.9064 24.0978 21.1291C23.8751 21.3518 23.75 21.6538 23.75 21.9688V26.7188C23.75 27.0337 23.8751 27.3357 24.0978 27.5584C24.3205 27.7811 24.6226 27.9062 24.9375 27.9062H34.4375V25.5312H26.125Z" fill="#000064"/>
<path opacity="0.6" d="M5.34375 31.4688C4.87133 31.4688 4.41827 31.2811 4.08422 30.947C3.75017 30.613 3.5625 30.1599 3.5625 29.6875V8.90625H2.96875C2.49633 8.90625 2.04327 9.09392 1.70922 9.42797C1.37517 9.76201 1.1875 10.2151 1.1875 10.6875V33.25C1.1875 33.7224 1.37517 34.1755 1.70922 34.5095C2.04327 34.8436 2.49633 35.0312 2.96875 35.0312H32.6562C33.1287 35.0312 33.5817 34.8436 33.9158 34.5095C34.2498 34.1755 34.4375 33.7224 34.4375 33.25V31.4688H5.34375Z" fill="black"/>
</g>
<path d="M34.4375 25.5312V33.25C34.4375 33.7224 34.2498 34.1755 33.9158 34.5095C33.5817 34.8436 33.1287 35.0312 32.6562 35.0312H2.96875C2.49633 35.0312 2.04327 34.8436 1.70922 34.5095C1.37517 34.1755 1.1875 33.7224 1.1875 33.25V10.6875C1.1875 10.2151 1.37517 9.76201 1.70922 9.42797C2.04327 9.09392 2.49633 8.90625 2.96875 8.90625H32.6562C33.1287 8.90625 33.5817 9.09392 33.9158 9.42797C34.2498 9.76201 34.4375 10.2151 34.4375 10.6875V18.4062M30.6969 8.90625L28.5 2.96875L12.1719 8.90625H30.6969Z" stroke="#363636" stroke-width="2" stroke-linecap="round" stroke-linejoin="round"/>
<path fill-rule="evenodd" clip-rule="evenodd" d="M26.125 19.4062C26.0214 19.4062 25.9375 19.4902 25.9375 19.5938V24.3438C25.9375 24.4473 26.0214 24.5312 26.125 24.5312H35.625C35.7286 24.5312 35.8125 24.4473 35.8125 24.3438V19.5938C35.8125 19.4902 35.7286 19.4062 35.625 19.4062H26.125ZM23.9375 19.5938C23.9375 18.3856 24.9169 17.4062 26.125 17.4062H35.625C36.8331 17.4062 37.8125 18.3856 37.8125 19.5938V24.3438C37.8125 25.5519 36.8331 26.5312 35.625 26.5312H26.125C24.9169 26.5312 23.9375 25.5519 23.9375 24.3438V19.5938Z" fill="#363636"/>
<path d="M27.3125 31.4688H28.5M7.125 12.4688H8.3125H7.125ZM13.0625 12.4688H14.25H13.0625ZM19 12.4688H20.1875H19ZM24.9375 12.4688H26.125H24.9375ZM9.5 31.4688H10.6875H9.5ZM15.4375 31.4688H16.625H15.4375ZM21.375 31.4688H22.5625H21.375Z" stroke="#363636" stroke-width="2" stroke-linecap="round" stroke-linejoin="round"/>
<path d="M29 23C29.5523 23 30 22.5523 30 22C30 21.4477 29.5523 21 29 21C28.4477 21 28 21.4477 28 22C28 22.5523 28.4477 23 29 23Z" fill="#363636"/>
</svg>
