<svg width="38" height="38" viewBox="0 0 38 38" fill="none" xmlns="http://www.w3.org/2000/svg">
<g clip-path="url(#clip0_190_29)">
<path d="M28.5234 28.5V5.93747C28.4872 3.56247 22.3888 1.19934 14.8672 1.19934C7.32656 1.19934 1.21094 3.31487 1.21094 5.93806V27.3125C1.21094 29.925 7.32656 32.0393 14.8672 32.0393C21.9922 32.0393 28.5234 30.2812 28.5234 28.5Z" fill="#FFCB66"/>
<path d="M14.8672 10.6875C22.4093 10.6875 28.5234 8.56085 28.5234 5.9375C28.5234 3.31415 22.4093 1.1875 14.8672 1.1875C7.32505 1.1875 1.21094 3.31415 1.21094 5.9375C1.21094 8.56085 7.32505 10.6875 14.8672 10.6875Z" fill="#FFA881"/>
<path opacity="0.18" d="M1.21094 5.9375V27.3125C1.21094 29.1864 4.36197 30.8055 8.92969 31.5703V10.2161C4.36197 9.44775 1.21094 7.82028 1.21094 5.9375Z" fill="#DD9100"/>
<path opacity="0.15" d="M18.4297 10.523V31.8731C19.9041 31.744 21.367 31.5059 22.8062 31.1606L26.1484 29.6068V8.61414C23.7097 9.70487 21.0957 10.3513 18.4297 10.523Z" fill="white"/>
<path d="M36.8363 21.9848L32.6664 17.8125L20.3438 30.1073L24.5137 34.2796L36.8363 21.9848Z" fill="#9DEDC6"/>
<path d="M20.3446 30.1073L17.7422 36.8125L24.5145 34.2796L20.3446 30.1073Z" fill="#9DEDC6"/>
<path opacity="0.18" d="M20.344 30.1073L28.5241 21.9456V17.8262L28.5104 17.8125L16.1877 30.1073L15.4414 32.031C16.8638 32.0132 18.2845 31.9266 19.6986 31.7716L20.344 30.1073Z" fill="#DD9100"/>
<path d="M14.8203 10.6875C22.3625 10.6875 28.4766 8.56085 28.4766 5.9375C28.4766 3.31415 22.3625 1.1875 14.8203 1.1875C7.27817 1.1875 1.16406 3.31415 1.16406 5.9375C1.16406 8.56085 7.27817 10.6875 14.8203 10.6875Z" stroke="#363636" stroke-width="2" stroke-linecap="round" stroke-linejoin="round"/>
<path d="M28.4766 13.0737C28.4766 15.6862 22.3609 17.8012 14.8203 17.8012C7.27969 17.8012 1.16406 15.685 1.16406 13.0737M28.4766 20.1993C28.4766 22.8118 22.3609 24.9262 14.8203 24.9262C7.27969 24.9262 1.16406 22.8095 1.16406 20.1993M20.3452 30.1072L32.6678 17.8124L36.8378 21.9847L24.5151 34.2795M20.3452 30.1072L17.7428 36.8125L24.5151 34.2795M20.3452 30.1072L24.5151 34.2795" stroke="#363636" stroke-width="2" stroke-linecap="round" stroke-linejoin="round"/>
<path d="M19.5947 31.7418C18.0111 31.9423 16.4165 32.0414 14.8203 32.0387C7.27969 32.0387 1.16406 29.9226 1.16406 27.3119V5.93745M28.4766 21.885V5.9137" stroke="#363636" stroke-width="2" stroke-linecap="round" stroke-linejoin="round"/>
</g>
<defs>
<clipPath id="clip0_190_29">
<rect width="38" height="38" fill="white"/>
</clipPath>
</defs>
</svg>
