<svg width="38" height="38" viewBox="0 0 38 38" fill="none" xmlns="http://www.w3.org/2000/svg">
<g clip-path="url(#clip0_190_76)">
<path d="M36.2188 16.0312H32.3291C31.986 14.4851 31.3749 13.0109 30.5235 11.6755L33.2749 8.92406C33.3862 8.81272 33.4488 8.66172 33.4488 8.50428C33.4488 8.34684 33.3862 8.19584 33.2749 8.0845L29.9161 4.72506C29.8047 4.61375 29.6538 4.55122 29.4963 4.55122C29.3389 4.55122 29.1879 4.61375 29.0765 4.72506L26.3251 7.4765C24.9894 6.62524 23.5151 6.01435 21.9688 5.6715V1.78125C21.9688 1.62378 21.9062 1.47276 21.7948 1.36141C21.6835 1.25006 21.5325 1.1875 21.375 1.1875H16.625C16.4675 1.1875 16.3165 1.25006 16.2052 1.36141C16.0938 1.47276 16.0312 1.62378 16.0312 1.78125V5.6715C14.4851 6.0146 13.0109 6.62568 11.6755 7.47709L8.92347 4.72506C8.81212 4.61375 8.66113 4.55122 8.50369 4.55122C8.34625 4.55122 8.19525 4.61375 8.08391 4.72506L4.72506 8.08391C4.61375 8.19525 4.55122 8.34625 4.55122 8.50369C4.55122 8.66113 4.61375 8.81212 4.72506 8.92347L7.4765 11.6749C6.62524 13.0106 6.01435 14.4849 5.6715 16.0312H1.78125C1.62378 16.0312 1.47276 16.0938 1.36141 16.2052C1.25006 16.3165 1.1875 16.4675 1.1875 16.625V21.375C1.1875 21.5325 1.25006 21.6835 1.36141 21.7948C1.47276 21.9062 1.62378 21.9688 1.78125 21.9688H5.6715C6.01459 23.5149 6.62567 24.9891 7.47709 26.3245L4.72506 29.0765C4.61375 29.1879 4.55122 29.3389 4.55122 29.4963C4.55122 29.6538 4.61375 29.8047 4.72506 29.9161L8.08391 33.2749C8.19525 33.3862 8.34625 33.4488 8.50369 33.4488C8.66113 33.4488 8.81212 33.3862 8.92347 33.2749L11.6749 30.5235C13.0105 31.3749 14.4849 31.986 16.0312 32.3291V36.2188C16.0312 36.3762 16.0938 36.5272 16.2052 36.6386C16.3165 36.7499 16.4675 36.8125 16.625 36.8125H21.375C21.5325 36.8125 21.6835 36.7499 21.7948 36.6386C21.9062 36.5272 21.9688 36.3762 21.9688 36.2188V32.3291C23.5149 31.986 24.989 31.3749 26.3245 30.5235L29.0759 33.2749C29.1873 33.3862 29.3383 33.4488 29.4957 33.4488C29.6532 33.4488 29.8042 33.3862 29.9155 33.2749L33.2743 29.9161C33.3857 29.8047 33.4482 29.6538 33.4482 29.4963C33.4482 29.3389 33.3857 29.1879 33.2743 29.0765L30.5229 26.3251C31.3746 24.9895 31.9859 23.5151 32.3291 21.9688H36.2188C36.3762 21.9688 36.5272 21.9062 36.6386 21.7948C36.7499 21.6835 36.8125 21.5325 36.8125 21.375V16.625C36.8125 16.4675 36.7499 16.3165 36.6386 16.2052C36.5272 16.0938 36.3762 16.0312 36.2188 16.0312ZM19 24.9375C17.8257 24.9375 16.6777 24.5893 15.7013 23.9369C14.7249 23.2844 13.9639 22.3571 13.5145 21.2722C13.0651 20.1872 12.9475 18.9934 13.1766 17.8417C13.4057 16.6899 13.9712 15.6319 14.8016 14.8016C15.6319 13.9712 16.6899 13.4057 17.8417 13.1766C18.9934 12.9475 20.1872 13.0651 21.2722 13.5145C22.3571 13.9639 23.2844 14.7249 23.9369 15.7013C24.5893 16.6777 24.9375 17.8257 24.9375 19C24.9375 20.5747 24.3119 22.0849 23.1984 23.1984C22.0849 24.3119 20.5747 24.9375 19 24.9375Z" fill="#FFCB66"/>
<path opacity="0.2" d="M7.47709 26.3245L9.25834 24.5432C8.40692 23.2078 7.79584 21.7336 7.45275 20.1875H3.5625C3.40503 20.1875 3.25401 20.1249 3.14266 20.0136C3.03131 19.9022 2.96875 19.7512 2.96875 19.5937V16.0312H1.78125C1.62378 16.0312 1.47276 16.0938 1.36141 16.2051C1.25006 16.3165 1.1875 16.4675 1.1875 16.625V21.375C1.1875 21.5324 1.25006 21.6835 1.36141 21.7948C1.47276 21.9062 1.62378 21.9687 1.78125 21.9687H5.6715C6.01459 23.5149 6.62567 24.989 7.47709 26.3245ZM7.47709 11.6755C6.96518 12.4866 6.54046 13.3495 6.21003 14.25H7.45216C7.79525 12.7038 8.40634 11.2297 9.25775 9.89422L6.50631 7.14278C6.395 7.03144 6.33247 6.88045 6.33247 6.723C6.33247 6.56556 6.395 6.41457 6.50631 6.30322L4.72506 8.08447C4.61375 8.19582 4.55122 8.34681 4.55122 8.50425C4.55122 8.6617 4.61375 8.81269 4.72506 8.92403L7.47709 11.6755ZM26.7188 17.2187C26.7192 15.9361 26.3042 14.6879 25.5358 13.661C24.7674 12.6341 23.687 11.8837 22.4564 11.5223C21.2258 11.1609 19.9112 11.208 18.7096 11.6563C17.5079 12.1047 16.4839 12.9303 15.7908 14.0095C16.9301 13.2747 18.2869 12.9523 19.635 13.0961C20.9831 13.24 22.2413 13.8413 23.2 14.8C24.1587 15.7587 24.76 17.0168 24.9038 18.365C25.0477 19.7131 24.7253 21.0698 23.9905 22.2092C24.8271 21.6727 25.5154 20.9345 25.9921 20.0625C26.4689 19.1904 26.7187 18.2126 26.7188 17.2187ZM30.8578 31.4937L28.1063 28.7422C26.7707 29.5937 25.2963 30.2047 23.75 30.5478V31.7899C24.6504 31.4597 25.5134 31.0352 26.3245 30.5235L29.0759 33.2749C29.1873 33.3862 29.3383 33.4488 29.4957 33.4488C29.6532 33.4488 29.8042 33.3862 29.9155 33.2749L31.6967 31.4937C31.5854 31.6048 31.4346 31.6672 31.2773 31.6672C31.12 31.6672 30.9691 31.6048 30.8578 31.4937ZM34.1103 20.1875C33.9718 20.7929 33.7917 21.3881 33.5712 21.9687H36.2188C36.3762 21.9687 36.5272 21.9062 36.6386 21.7948C36.7499 21.6835 36.8125 21.5324 36.8125 21.375V20.1875H34.1103ZM9.86516 31.4937L6.50631 28.1348C6.395 28.0235 6.33247 27.8725 6.33247 27.715C6.33247 27.5576 6.395 27.4066 6.50631 27.2953L4.72506 29.0765C4.61375 29.1878 4.55122 29.3388 4.55122 29.4963C4.55122 29.6537 4.61375 29.8047 4.72506 29.9161L8.08391 33.2749C8.19525 33.3862 8.34625 33.4488 8.50369 33.4488C8.66113 33.4488 8.81212 33.3862 8.92347 33.2749L10.7047 31.4937C10.5934 31.605 10.4424 31.6675 10.2849 31.6675C10.1275 31.6675 9.9765 31.605 9.86516 31.4937ZM18.4062 35.0312C18.2488 35.0312 18.0978 34.9687 17.9864 34.8573C17.8751 34.746 17.8125 34.5949 17.8125 34.4375V30.5478C16.2664 30.2047 14.7922 29.5936 13.4567 28.7422L11.6755 30.5235C13.011 31.3748 14.4851 31.9859 16.0312 32.3291V36.2187C16.0312 36.3762 16.0938 36.5272 16.2052 36.6386C16.3165 36.7499 16.4675 36.8125 16.625 36.8125H21.375C21.5325 36.8125 21.6835 36.7499 21.7948 36.6386C21.9062 36.5272 21.9688 36.3762 21.9688 36.2187V35.0312H18.4062Z" fill="#7C5200"/>
<path d="M19 24.9375C22.2792 24.9375 24.9375 22.2792 24.9375 19C24.9375 15.7208 22.2792 13.0625 19 13.0625C15.7208 13.0625 13.0625 15.7208 13.0625 19C13.0625 22.2792 15.7208 24.9375 19 24.9375Z" stroke="#363636" stroke-width="2" stroke-miterlimit="10" stroke-linecap="round" stroke-linejoin="round"/>
<path d="M36.2188 16.0312H32.3291C31.986 14.4851 31.3749 13.0109 30.5235 11.6755L33.2749 8.92406C33.3862 8.81272 33.4488 8.66172 33.4488 8.50428C33.4488 8.34684 33.3862 8.19584 33.2749 8.0845L29.9161 4.72506C29.8047 4.61375 29.6538 4.55122 29.4963 4.55122C29.3389 4.55122 29.1879 4.61375 29.0765 4.72506L26.3251 7.4765C24.9894 6.62524 23.5151 6.01435 21.9688 5.6715V1.78125C21.9688 1.62378 21.9062 1.47276 21.7948 1.36141C21.6835 1.25006 21.5325 1.1875 21.375 1.1875H16.625C16.4675 1.1875 16.3165 1.25006 16.2052 1.36141C16.0938 1.47276 16.0312 1.62378 16.0312 1.78125V5.6715C14.4851 6.0146 13.0109 6.62568 11.6755 7.47709L8.92347 4.72506C8.81212 4.61375 8.66113 4.55122 8.50369 4.55122C8.34625 4.55122 8.19525 4.61375 8.08391 4.72506L4.72506 8.08391C4.61375 8.19525 4.55122 8.34625 4.55122 8.50369C4.55122 8.66113 4.61375 8.81212 4.72506 8.92347L7.4765 11.6749C6.62524 13.0106 6.01435 14.4849 5.6715 16.0312H1.78125C1.62378 16.0312 1.47276 16.0938 1.36141 16.2052C1.25006 16.3165 1.1875 16.4675 1.1875 16.625V21.375C1.1875 21.5325 1.25006 21.6835 1.36141 21.7948C1.47276 21.9062 1.62378 21.9688 1.78125 21.9688H5.6715C6.01459 23.5149 6.62567 24.9891 7.47709 26.3245L4.72506 29.0765C4.61375 29.1879 4.55122 29.3389 4.55122 29.4963C4.55122 29.6538 4.61375 29.8047 4.72506 29.9161L8.08391 33.2749C8.19525 33.3862 8.34625 33.4488 8.50369 33.4488C8.66113 33.4488 8.81212 33.3862 8.92347 33.2749L11.6749 30.5235C13.0105 31.3749 14.4849 31.986 16.0312 32.3291V36.2188C16.0312 36.3762 16.0938 36.5272 16.2052 36.6386C16.3165 36.7499 16.4675 36.8125 16.625 36.8125H21.375C21.5325 36.8125 21.6835 36.7499 21.7948 36.6386C21.9062 36.5272 21.9688 36.3762 21.9688 36.2188V32.3291C23.5149 31.986 24.989 31.3749 26.3245 30.5235L29.0759 33.2749C29.1873 33.3862 29.3383 33.4488 29.4957 33.4488C29.6532 33.4488 29.8042 33.3862 29.9155 33.2749L33.2743 29.9161C33.3857 29.8047 33.4482 29.6538 33.4482 29.4963C33.4482 29.3389 33.3857 29.1879 33.2743 29.0765L30.5229 26.3251C31.3746 24.9895 31.9859 23.5151 32.3291 21.9688H36.2188C36.3762 21.9688 36.5272 21.9062 36.6386 21.7948C36.7499 21.6835 36.8125 21.5325 36.8125 21.375V16.625C36.8125 16.4675 36.7499 16.3165 36.6386 16.2052C36.5272 16.0938 36.3762 16.0312 36.2188 16.0312Z" stroke="#363636" stroke-width="2" stroke-miterlimit="10" stroke-linecap="round" stroke-linejoin="round"/>
</g>
<defs>
<clipPath id="clip0_190_76">
<rect width="38" height="38" fill="white"/>
</clipPath>
</defs>
</svg>
