<svg width="38" height="38" viewBox="0 0 38 38" fill="none" xmlns="http://www.w3.org/2000/svg">
<g clip-path="url(#clip0_190_86)">
<path d="M9.5 4.75V28.5H17.8125V30.875C17.8125 32.4497 18.4381 33.9599 19.5516 35.0734C20.665 36.1869 22.1753 36.8125 23.75 36.8125C25.3247 36.8125 26.8349 36.1869 27.9484 35.0734C29.0619 33.9599 29.6875 32.4497 29.6875 30.875V4.75C29.6874 3.81536 30.0545 2.91811 30.7099 2.25169C31.3652 1.58528 32.2561 1.20308 33.1906 1.1875H13.0625C12.1177 1.1875 11.2115 1.56283 10.5434 2.23093C9.87533 2.89903 9.5 3.80517 9.5 4.75Z" fill="#FFCB66"/>
<path d="M23.75 36.8125C22.1753 36.8125 20.6651 36.1869 19.5516 35.0734C18.4381 33.9599 17.8125 32.4497 17.8125 30.875V28.5H1.1875V30.875C1.1875 32.4497 1.81306 33.9599 2.92655 35.0734C3.4779 35.6248 4.13245 36.0621 4.85282 36.3605C5.57319 36.6589 6.34528 36.8125 7.125 36.8125H23.75ZM29.6875 4.75C29.6875 3.80517 30.0628 2.89903 30.7309 2.23093C31.399 1.56283 32.3052 1.1875 33.25 1.1875C34.1948 1.1875 35.101 1.56283 35.7691 2.23093C36.4372 2.89903 36.8125 3.80517 36.8125 4.75V7.125H29.6875V4.75Z" fill="#E0EAFC"/>
<path d="M23.75 36.8125C22.1753 36.8125 20.6651 36.1869 19.5516 35.0734C18.4381 33.9599 17.8125 32.4497 17.8125 30.875V28.5H1.1875V30.875C1.1875 32.4497 1.81306 33.9599 2.92655 35.0734C3.4779 35.6248 4.13245 36.0621 4.85282 36.3605C5.57319 36.6589 6.34528 36.8125 7.125 36.8125H23.75ZM29.6875 4.75C29.6875 3.80517 30.0628 2.89903 30.7309 2.23093C31.399 1.56283 32.3052 1.1875 33.25 1.1875C34.1948 1.1875 35.101 1.56283 35.7691 2.23093C36.4372 2.89903 36.8125 3.80517 36.8125 4.75V7.125H29.6875V4.75Z" fill="#68CE9C"/>
<path d="M9.5 28.5V4.75C9.5 3.80517 9.87533 2.89903 10.5434 2.23093C11.2115 1.56283 12.1177 1.1875 13.0625 1.1875H33.25" stroke="#363636" stroke-width="2" stroke-linecap="round" stroke-linejoin="round"/>
<path d="M29.6875 7.125H36.8125V4.75C36.8125 3.80517 36.4372 2.89903 35.7691 2.23093C35.101 1.56283 34.1948 1.1875 33.25 1.1875C32.3052 1.1875 31.399 1.56283 30.7309 2.23093C30.0628 2.89903 29.6875 3.80517 29.6875 4.75V30.875C29.6875 32.4497 29.0619 33.96 27.9484 35.0734C26.8349 36.1869 25.3247 36.8125 23.75 36.8125M23.75 36.8125C22.1753 36.8125 20.6651 36.1869 19.5516 35.0734C18.4381 33.96 17.8125 32.4497 17.8125 30.875V28.5H1.1875V30.875C1.1875 32.4497 1.81306 33.96 2.92655 35.0734C3.4779 35.6248 4.13245 36.0621 4.85282 36.3605C5.57319 36.6589 6.34528 36.8125 7.125 36.8125H23.75ZM14.25 7.125H23.75M14.25 16.625H23.75M14.25 11.875H21.375M14.25 21.375H21.375" stroke="#363636" stroke-width="2" stroke-linecap="round" stroke-linejoin="round"/>
</g>
<defs>
<clipPath id="clip0_190_86">
<rect width="38" height="38" fill="white"/>
</clipPath>
</defs>
</svg>
