<svg width="100" height="100" viewBox="0 0 100 100" fill="none" xmlns="http://www.w3.org/2000/svg">
<path fill-rule="evenodd" clip-rule="evenodd" d="M50.1314 23C34.5888 23 22 35.5276 22 50.9946C22 63.3822 30.0526 73.8452 41.2348 77.5544C42.6414 77.7994 43.1688 76.9596 43.1688 76.2247C43.1688 75.5598 43.1337 73.3553 43.1337 71.0107C36.0657 72.3055 34.2371 69.296 33.6745 67.7213C33.358 66.9165 31.9866 64.432 30.791 63.7671C29.8064 63.2422 28.3999 61.9475 30.7559 61.9125C32.9712 61.8775 34.5536 63.9421 35.0811 64.7819C37.6129 69.0161 41.6568 67.8263 43.2743 67.0915C43.5205 65.2718 44.2589 64.0471 45.0677 63.3472C38.8085 62.6473 32.2679 60.2328 32.2679 49.5249C32.2679 46.4805 33.358 43.9609 35.1514 42.0013C34.8701 41.3015 33.8855 38.432 35.4327 34.5828C35.4327 34.5828 37.7887 33.8479 43.1688 37.4522C45.4193 36.8223 47.8105 36.5074 50.2017 36.5074C52.5928 36.5074 54.984 36.8223 57.2345 37.4522C62.6146 33.8129 64.9706 34.5828 64.9706 34.5828C66.5179 38.432 65.5333 41.3015 65.252 42.0013C67.0453 43.9609 68.1354 46.4455 68.1354 49.5249C68.1354 60.2678 61.5597 62.6473 55.3005 63.3472C56.3203 64.222 57.1994 65.9017 57.1994 68.5262C57.1994 72.2705 57.1642 75.2799 57.1642 76.2247C57.1642 76.9596 57.6917 77.8344 59.0982 77.5544C70.2101 73.8452 78.2627 63.3472 78.2627 50.9946C78.2627 35.5276 65.6739 23 50.1314 23Z" fill="white"/>
</svg>
