<svg width="100" height="100" viewBox="0 0 100 100" fill="none" xmlns="http://www.w3.org/2000/svg">
<path d="M41.215 50.304C41.215 45.2776 45.291 41.2019 50.3203 41.2019C55.3497 41.2019 59.4279 45.2776 59.4279 50.304C59.4279 55.3303 55.3497 59.406 50.3203 59.406C45.291 59.406 41.215 55.3303 41.215 50.304ZM36.2917 50.304C36.2917 58.0474 42.5723 64.3242 50.3203 64.3242C58.0684 64.3242 64.349 58.0474 64.349 50.304C64.349 42.5606 58.0684 36.2837 50.3203 36.2837C42.5723 36.2837 36.2917 42.5606 36.2917 50.304ZM61.6259 35.7278C61.6257 36.3758 61.8177 37.0094 62.1777 37.5483C62.5378 38.0873 63.0496 38.5074 63.6486 38.7557C64.2475 39.0039 64.9067 39.069 65.5427 38.9429C66.1787 38.8167 66.763 38.5049 67.2217 38.0469C67.6803 37.5888 67.9928 37.0051 68.1196 36.3696C68.2463 35.7341 68.1817 35.0753 67.9338 34.4765C67.6859 33.8777 67.2659 33.3658 66.7269 33.0055C66.1879 32.6453 65.5541 32.4529 64.9057 32.4526H64.9044C64.0352 32.453 63.2018 32.7982 62.5871 33.4123C61.9724 34.0264 61.6267 34.8592 61.6259 35.7278ZM39.2829 72.5287C36.6193 72.4075 35.1715 71.9641 34.2094 71.5895C32.9339 71.0932 32.0238 70.5021 31.0669 69.5471C30.1101 68.5922 29.5178 67.6835 29.0234 66.4087C28.6483 65.4476 28.2046 64.0003 28.0836 61.3383C27.9511 58.4602 27.9247 57.5956 27.9247 50.3042C27.9247 43.0127 27.9533 42.1506 28.0836 39.2701C28.2049 36.6081 28.6518 35.1636 29.0234 34.1996C29.5199 32.9249 30.1114 32.0153 31.0669 31.059C32.0225 30.1027 32.9317 29.5108 34.2094 29.0167C35.1711 28.6419 36.6193 28.1985 39.2829 28.0774C42.1627 27.9451 43.0278 27.9186 50.3203 27.9186C57.6129 27.9186 58.4789 27.9473 61.361 28.0774C64.0247 28.1987 65.47 28.6454 66.4345 29.0167C67.7101 29.5108 68.6202 30.1041 69.577 31.059C70.5339 32.014 71.124 32.9249 71.6206 34.1996C71.9956 35.1607 72.4393 36.6081 72.5604 39.2701C72.6929 42.1506 72.7193 43.0127 72.7193 50.3042C72.7193 57.5956 72.6929 58.4578 72.5604 61.3383C72.4391 64.0003 71.9932 65.4472 71.6206 66.4087C71.124 67.6835 70.5326 68.593 69.577 69.5471C68.6215 70.5012 67.7101 71.0932 66.4345 71.5895C65.4729 71.9643 64.0247 72.4077 61.361 72.5287C58.4813 72.6611 57.6162 72.6875 50.3203 72.6875C43.0245 72.6875 42.1618 72.6611 39.2829 72.5287ZM39.0567 23.1654C36.1483 23.2977 34.1609 23.7586 32.4253 24.4336C30.6278 25.1306 29.1062 26.0657 27.5857 27.5829C26.0651 29.1001 25.1319 30.6233 24.4344 32.4196C23.7591 34.1553 23.2979 36.1404 23.1655 39.0471C23.0308 41.9583 23 42.8891 23 50.304C23 57.7188 23.0308 58.6496 23.1655 61.5608C23.2979 64.4677 23.7591 66.4526 24.4344 68.1883C25.1319 69.9836 26.0653 71.5084 27.5857 73.025C29.106 74.5416 30.6278 75.4754 32.4253 76.1744C34.1642 76.8493 36.1483 77.3102 39.0567 77.4426C41.9712 77.5749 42.901 77.6079 50.3203 77.6079C57.7397 77.6079 58.671 77.5771 61.584 77.4426C64.4926 77.3102 66.4787 76.8493 68.2154 76.1744C70.0118 75.4754 71.5345 74.5422 73.055 73.025C74.5756 71.5078 75.5069 69.9836 76.2063 68.1883C76.8816 66.4526 77.345 64.4675 77.4752 61.5608C77.6077 58.6474 77.6385 57.7188 77.6385 50.304C77.6385 42.8891 77.6077 41.9583 77.4752 39.0471C77.3428 36.1402 76.8816 34.1542 76.2063 32.4196C75.5069 30.6244 74.5732 29.1025 73.055 27.5829C71.5369 26.0633 70.0118 25.1306 68.2176 24.4336C66.4787 23.7586 64.4924 23.2955 61.5862 23.1654C58.6732 23.033 57.7419 23 50.3225 23C42.9032 23 41.9712 23.0308 39.0567 23.1654Z" fill="white"/>
</svg>
