<svg width="100" height="100" viewBox="0 0 100 100" fill="none" xmlns="http://www.w3.org/2000/svg">
<path fill-rule="evenodd" clip-rule="evenodd" d="M27.0383 23C24.8087 23 23 24.7536 23 26.9141V73.7279C23 75.8886 24.8089 77.6407 27.0383 77.6407H73.6024C75.8328 77.6407 77.6407 75.8883 77.6407 73.7273V26.9141C77.6407 24.7536 75.8328 23 73.6024 23H27.0383ZM39.6043 44.1278V68.7272H31.4279V44.1278H39.6043ZM40.1433 36.5201C40.1433 38.8808 38.3685 40.7697 35.5178 40.7697L35.4642 40.7695C32.72 40.7695 30.9459 38.8806 30.9459 36.5199C30.9459 34.1057 32.7736 32.2695 35.572 32.2695C38.3685 32.2695 40.0899 34.1057 40.1433 36.5201ZM52.3059 68.7272H44.1301C44.1301 68.7272 44.2373 46.4363 44.1306 44.1286H52.3066V47.6106C53.3935 45.9348 55.3387 43.5511 59.6756 43.5511C65.0549 43.5511 69.0881 47.0671 69.0881 54.6226V68.7272H60.9125V55.5686C60.9125 52.2613 59.7285 50.0057 56.7707 50.0057C54.5114 50.0057 53.1661 51.5269 52.5753 52.9964C52.3593 53.5209 52.3059 54.257 52.3059 54.9912V68.7272Z" fill="white"/>
</svg>
