<svg width="16" height="16" viewBox="0 0 31 35" fill="none" xmlns="http://www.w3.org/2000/svg">
<path d="M14.125 1.2501C14.375 1.2501 14.5 1.3751 14.75 1.5001C13.25 2.1251 11.75 3.7501 11 7.2501L8.25 8.0001C9.125 5.5001 10.875 1.2501 14.125 1.2501ZM15.5 2.5001C15.75 3.2501 16 4.1251 16 5.5001C16 5.6251 16 5.6251 16 5.7501L12.375 6.7501C13.125 4.1251 14.375 3.0001 15.5 2.5001ZM18.75 4.7501L17.125 5.2501C17.125 5.1251 17.125 5.0001 17.125 4.8751C17.125 3.7501 17 2.8751 16.75 2.1251C17.625 2.3751 18.375 3.5001 18.75 4.7501ZM26.875 6.7501C26.875 6.6251 26.75 6.5001 26.625 6.5001C26.375 6.5001 23.75 6.2501 23.75 6.2501C23.75 6.2501 21.875 4.3751 21.625 4.2501C21.375 4.0001 21 4.1251 20.875 4.1251C20.875 4.1251 20.5 4.2501 19.875 4.5001C19.25 2.7501 18.125 1.1251 16.25 1.1251H16.125C15.625 0.375096 14.875 0.125096 14.25 0.125096C9.75 9.59543e-05 7.625 5.6251 6.875 8.5001C5.875 8.7501 4.875 9.1251 3.75 9.5001C2.75 9.7501 2.75 9.8751 2.625 10.7501C2.5 11.3751 0 31.1251 0 31.1251L19.875 34.8751L30.625 32.5001C30.625 32.5001 26.875 7.0001 26.875 6.7501Z" fill="#8DB849"/>
<path d="M26.5 6.5C26.375 6.5 23.75 6.25 23.75 6.25C23.75 6.25 21.875 4.375 21.625 4.25C21.5 4.125 21.5 4.125 21.375 4.125L19.875 34.875L30.625 32.5C30.625 32.5 26.875 7 26.875 6.75C26.875 6.625 26.625 6.5 26.5 6.5Z" fill="#5A863E"/>
<path d="M16.25 12.4999L14.875 16.4999C14.875 16.4999 13.75 15.8749 12.25 15.8749C10.125 15.8749 10 17.1249 10 17.4999C10 19.2499 14.75 19.9999 14.75 24.2499C14.75 27.6249 12.625 29.7499 9.75 29.7499C6.375 29.7499 4.625 27.6249 4.625 27.6249L5.5 24.6249C5.5 24.6249 7.25 26.1249 8.75 26.1249C9.75 26.1249 10.125 25.3749 10.125 24.7499C10.125 22.3749 6.25 22.2499 6.25 18.3749C6.25 15.1249 8.625 11.9999 13.25 11.9999C15.375 11.8749 16.25 12.4999 16.25 12.4999Z" fill="#FFFFFE"/>
</svg>
