<svg width="100" height="100" viewBox="0 0 100 100" fill="none" xmlns="http://www.w3.org/2000/svg">
<path fill-rule="evenodd" clip-rule="evenodd" d="M77.6407 50.3203C77.6407 65.4089 65.4089 77.6407 50.3203 77.6407C35.2318 77.6407 23 65.4089 23 50.3203C23 35.2318 35.2318 23 50.3203 23C65.4089 23 77.6407 35.2318 77.6407 50.3203ZM52.9384 41.9372C48.2449 43.9645 34.7118 49.722 34.7118 49.722C31.5045 51.0195 33.3818 52.2358 33.3818 52.2358C33.3818 52.2358 36.1198 53.209 38.4666 53.9387C40.8134 54.6685 42.065 53.8577 42.065 53.8577C42.065 53.8577 47.5408 50.1274 53.0948 46.1539C57.0061 43.3969 56.0675 45.6674 55.1287 46.6406C53.0948 48.7489 49.7311 52.0736 46.915 54.7497C45.6634 55.885 46.2892 56.858 46.8368 57.3446C48.4294 58.7415 52.1803 61.282 53.8832 62.4355C54.3551 62.7551 54.6697 62.9682 54.7376 63.021C55.1287 63.3454 57.3191 64.805 58.6489 64.4806C59.9787 64.1563 60.1352 62.2911 60.1352 62.2911C60.1352 62.2911 61.1521 55.6417 62.0909 49.5598C62.2647 48.3657 62.4386 47.1966 62.6007 46.1065C63.0221 43.2731 63.3642 40.9731 63.4207 40.1532C63.6554 37.3961 60.8392 38.5313 60.8392 38.5313C60.8392 38.5313 54.7376 41.1263 52.9384 41.9372Z" fill="white"/>
</svg>
